<svg xmlns="http://www.w3.org/2000/svg" viewBox="0 0 500 500">
  <defs>
    <style>
      .cls-1 {
        fill: #f7b542;
      }

      .cls-1, .cls-2, .cls-3 {
        stroke-width: 0px;
      }

      .cls-2 {
        fill: #237b4f;
      }

      .cls-3 {
        fill: #fff;
      }
    </style>
  </defs>
  <g id="Logo">
    <g>
      <path class="cls-1" d="M212.2,326.78c-11.14,0-21.69-4.46-28.53-12.5-10.53,3.18-22.39.35-33.54-8.05-15.01-11.32-24.93-29.92-24.38-45.56-5.48-5.57-8.15-13.71-7.5-23,.87-12.42,7.54-25.08,16.62-31.52,9.76-6.93,23.84-9.41,38.63-6.82,6.78,1.18,13.65,4.13,18.35,7.88,4.89,3.9,11.35,13.33,12.68,20.13.13.7.09,1.39.05,2.07-.02.38-.06.76-.02,1.1.99,9.64-1.51,18.25-7.03,24.25-5.32,5.78-12.95,8.84-22.11,8.88-1.11,1.53-2.18,2.9-3.14,4.14-4.56,5.86-5.74,7.61-2.91,10.49,1.02-1.04,1.97-2.12,2.95-3.24,2.74-3.12,5.57-6.34,9.67-8.27.27-.13.57-.2.87-.2h23.4c1.12,0,2.04.92,2.04,2.04v11.43c0,1.12-.92,2.04-2.04,2.04h-18.04c-.67.39-2.11,1.97-3.18,3.14-3.62,3.98-9.06,9.96-16.36,9.47-5.5-.4-10.81-4.33-16.23-12.03l-6.58.48c1.9,4.13,8.05,11.02,15.44,14.69,4.38,2.17,10.89,4.01,17.04.41,1.24-.73,2.31-2.21,3.54-3.92,4.19-5.8,9.9-13.65,30.9-7.97l.42-14.8c.03-1.1.95-1.99,2.04-1.99l15.69-.65-.04-6.76c-4.06.12-7.71.15-11.21.32-5.87.27-11.42.52-18.58-.06-.26-.02-.51-.1-.75-.21-.58-.29-1-.86-1.11-1.5-.11-.64.11-1.31.57-1.78,7.86-12.67,13.82-12.53,22.03-12.33,3.04.07,6.43.15,10.53-.41v-28.91c-1.33-.16-4.03-.05-6.28.04-6.27.26-14.87.6-20.93-2.16l-.68-.3c-1.32-.57-2.96-1.27-4.1-2.84-1.23-1.69-3.27-7.13-1.51-9.6.85-1.18,2.28-1.22,6.21-1.11.58.01,1.07.04,1.33.02,4.1-.17,8.25-.1,12.27-.03,4.02.08,8.14.16,12.19-.03l1.35-29.43c-12.28-1.48-18.37,2.02-19.94,5.91-.97,2.41-.16,4.6,1.14,5.52.44.31.63.35.64.36-.21-.06.17-.74.42-1.19,1.17-2.12,3.32-6.1,9.57-4.98,2.56.45,4.47,1.98,5.4,4.31,1.34,3.38.3,7.46-1.42,9.77-6.9,9.25-18.43,7.35-26.24,1.67-6.79-4.94-8.29-13.27-3.92-21.72,5.34-10.32,18.81-18.62,33.99-14.91l-.23-31.39s0-10.45,0-15.07c-8.65,1.3-17.23,10.5-17.58,17.25-.31,6.02,5.86,7.93,11.08,8.47,1.04.11,1.84.99,1.84,2.03l-.75,11.8c-.07,1.07-.97,1.92-2.04,1.92-3.28,0-5.94-.06-8.15-.11q-9.19-.21-12.99,6.2c-.81,1.37-1.77,3-2.97,4.91-6.16,9.83-13.58,11.17-18.99,12.15-3.07.55-5.49.99-6.86,2.73-.23.41-1.24,3-1.78,4.51,2.33,1.43,8.79,4.49,10.31,5.02.54.19.98.61,1.2,1.14.31.76.13,1.65-.45,2.23-3.33,2.15-6.38,3.22-9.68,3.56-2.24.23-28.29.34-30.22-.03-3.65-.69-6.28-3.21-7.04-6.74-.9-4.24,1.05-8.99,4.74-11.54,2.49-1.74,7.71-3.82,15.63.41,1.48-3.23,3.44-6.05,5.33-8.36l-23.37-.61c-10.31,11.8-11.36,20.31-3.96,31.14.24.35.36.77.35,1.2-.02.55-.43,1.24-.85,1.62-2.86,2.58-9.88,9.01-13.13,12.99-.96,1.17-2.51,1.63-3.95,1.14-1.44-.49-2.4-1.79-2.46-3.32l-.12-2.52c-.26-4.99-.54-10.15,2.15-14.15-7.61-16.77,11.6-51.33,20.31-58.46.94-12.54,9.02-27.24,20.85-37.86,10.63-9.55,22.71-14.55,34.29-14.11,8.79-10.61,25.63-16.88,38.65-14.21,8.82,1.83,14.96,7.69,17.29,16.52.05.17.07.34.07.52v209.23c-1.33,13.78-10.46,24.32-24.42,28.37-3.91,1.14-7.89,1.69-11.79,1.69ZM184.35,309.9c.62,0,1.23.29,1.62.78,8.06,10.36,22.9,14.59,36.89,10.52,12.31-3.58,20.36-12.8,21.51-24.67V87.76c-2.52-9.11-9.06-12.28-14.13-13.33-11.69-2.44-27.52,3.67-35.31,13.56-.41.52-1.08.88-1.74.78-10.67-.64-22.23,3.93-32.36,13.03-11.39,10.22-19.07,24.35-19.56,35.98-.02.51-.24,1-.6,1.36-7.67,5.07-27.69,40.76-19.57,55.17.17.31.26.65.26,1,0,.49-.17.98-.5,1.35-2.51,2.89-2.27,7.5-2.01,12.37l.07,1.47c3.21-3.69,8.6-8.72,11.7-11.55-9.26-14.86-2.69-25.76,5.87-35.34.24-.27.54-.46.88-.58.22-.07.46-.1.7-.11l28.6.75c.2,0,.4.04.59.11.67.22,1.19.79,1.35,1.47.16.69-.05,1.42-.54,1.92-4.18,4.47-6.73,8.32-8.22,12.42h0c-.15.43-.45.8-.85,1.05-.6.37-1.36.41-1.99.08-5.44-3.46-10.12-4.08-13.39-1.81-2.35,1.63-3.64,4.72-3.07,7.36.29,1.37,1.19,3.11,3.81,3.6,1.87.23,26.63.22,29.06-.03,1.34-.13,2.6-.41,3.83-.84-3.73-1.7-8.68-4.23-9.08-5.87-.37-1.49,2.55-7.82,2.87-8.21,2.31-2.94,5.72-3.56,9.32-4.21,5.19-.94,11.07-2,16.27-10.31,1.18-1.88,2.12-3.48,2.92-4.82,4.88-8.25,5.82-8.45,16.57-8.19,1.74.04,3.77.08,6.17.1l.5-7.92c-12-1.98-12.96-9.27-12.8-12.44.52-10.13,12.9-21.26,23.65-21.26q2.04,0,2.04,19.26l.25,34.08c0,.54-.22,1.07-.6,1.45-.54.54-1.38.74-2.1.5-14.12-4.73-26.89,2.72-31.77,12.15-3.43,6.65-2.42,12.84,2.7,16.58,4.82,3.5,14.57,7.26,20.59-.82,1.01-1.36,1.62-4.04.9-5.85-.41-1.02-1.15-1.6-2.34-1.81-3.33-.6-4.18.89-5.31,2.95-.72,1.32-1.55,2.8-3.26,3.19-1.14.26-2.36-.06-3.7-1-3.03-2.14-4.1-6.49-2.55-10.34,1.08-2.68,6.16-11.14,26.11-8.17,1.03.16,1.78,1.06,1.73,2.1l-1.52,33.11c-.05,1.02-.86,1.86-1.89,1.93-4.8.33-9.65.23-14.35.14-3.94-.07-8.03-.16-12,.03-.3,0-.89,0-1.61-.02-.65-.02-1.91-.04-2.79-.02.15,1.15.85,3.43,1.47,4.29.49.67,1.38,1.06,2.42,1.51l.76.33c5.19,2.36,13.22,2.03,19.09,1.8,6.17-.25,9.27-.38,10.32,1.94.12.26.18.55.18.83v31.87c0,1.12-.92,2.04-2.04,2.04-4.91.89-9.2.79-12.64.69-7.18-.17-11.07-.27-16.89,7.94,5.34.26,9.87.05,14.63-.17,4.11-.19,8.36-.37,13.44-.31,1.1.02,1.99.91,2,2.02l.06,10.72c0,1.09-.86,1.99-1.94,2.04l-15.85.65-.44,15.52c-.02.68-.39,1.33-.97,1.69-.59.37-1.36.41-1.99.08-20.02-6.07-24.59.27-28.63,5.86-1.45,2-2.81,3.88-4.79,5.04-6.1,3.58-13.32,3.49-20.89-.27-9.66-4.79-17.61-14.45-18.26-19.9-.11-.85.35-1.7,1.12-2.08.24-.12.5-.19.76-.21l10.19-.74c.72-.08,1.43.3,1.84.9,4.83,7.13,9.48,10.91,13.82,11.22,5.48.35,9.8-4.55,13.07-8.16,2.1-2.31,3.62-3.98,5.31-4.41l16.9-.05v-7.41h-20.91c-3.14,1.61-5.48,4.27-7.96,7.09-1.43,1.63-2.92,3.32-4.6,4.83-.79.72-2.04.69-2.82-.07-7.42-6.21-3.66-11.05,1.11-17.18,1.11-1.43,2.36-3.03,3.66-4.85.39-.54,1.05-.96,1.71-.86,8.43.26,15.39-2.45,20.1-7.57,4.72-5.13,6.85-12.62,5.98-21.08-.06-.55-.03-1.17.01-1.78.02-.36.05-.85.02-1.04-1.05-5.35-6.5-13.97-11.23-17.74-4.2-3.34-10.38-5.98-16.53-7.06-13.75-2.41-26.71-.17-35.59,6.13-8.14,5.78-14.13,17.23-14.92,28.5-.59,8.4,1.87,15.65,6.92,20.42.41.38.64.92.64,1.48-.91,14.68,8.44,32.36,22.72,43.13,10.51,7.92,21.54,10.4,31.11,7.02.22-.08.44-.12.68-.12Z" />
      <path class="cls-1" d="M217.21,102.79c-4.21,0-8.06-1.99-9.4-5.26-1.14-2.76-1.24-5.28-.28-7.49,1.95-4.52,7.8-6.75,14.58-9.34,8.35-3.19,11.62.11,13.38,1.87l.16.16c1.21,1.2,1.66,2.96,1.25,4.84-.49,2.22-2.1,4.19-4.02,4.9-5.33,1.97-5.81,3.34-6.28,4.68-.67,1.92-1.56,3.74-5.05,4.92-1.43.49-2.91.72-4.34.72ZM228.26,84.78c-1.03,0-2.38.27-4.23.98-5.16,1.97-10.5,4.01-11.54,6.43-.13.31-.53,1.23.31,3.28.49,1.19,3.53,2.68,7.01,1.48,1.28-.43,1.33-.57,1.68-1.58.94-2.69,2.38-5.34,9.51-7.97.24-.12.57-.68.62-1.02-.79-.79-1.61-1.6-3.36-1.6Z" />
      <path class="cls-1" d="M141.69,254.44c-3.72,0-6.86-1.37-9.07-4.02-3.96-4.77-4.31-13.18-.89-21.43,4.83-11.65,15.1-19.27,27.47-20.4h0c13.7-1.2,25.6,3.89,31.7,13.76,4.6,7.43,4.97,16.04.98,22.49-4.16,6.74-11.72,8.66-17.37,7.59-5.12-.98-8.76-4.26-9.51-8.54-.2-1.11-.56-3.19,1.06-4.44,1.53-1.17,3.2-.42,4.19.04,1.46.67,3.28,1.5,6,.24,3.32-1.53,3.43-4.32,2.94-6.39-1.36-5.72-8.3-11.73-17.66-11.37-6.8.24-12.92,4.3-15.98,10.59-2.85,5.86-2.35,12.14,1.37,17.23.55.76.67,1.77.31,2.64-.34.83-1.08,1.44-1.94,1.62h0c-1.25.26-2.46.4-3.6.4ZM159.69,213.98h0c-10.32.94-18.91,7.33-22.95,17.09-2.62,6.32-2.6,12.71.05,15.89.88,1.06,2.04,1.72,3.49,1.97-2.68-6-2.54-12.66.42-18.74,3.94-8.09,11.85-13.31,20.66-13.63,12.09-.36,21.21,7.55,23.11,15.53,1.3,5.46-.98,10.26-5.94,12.55-2.45,1.13-4.6,1.28-6.37,1.07.99.73,2.23,1.19,3.39,1.41,3.81.72,8.94-.57,11.74-5.11,2.86-4.62,2.47-11.22-.98-16.81-4.99-8.08-14.9-12.28-26.62-11.21Z" />
      <path class="cls-1" d="M212.43,315.18c-8.27,0-15.95-3.89-19.49-8.65-2.76-3.72-2.47-7.72.73-10.19,3.85-2.97,9.01-1.25,14.02.43,4.38,1.47,8.91,2.97,11.57,1.11,2.55-1.79,4.03-6.94,4.25-14.9.04-1.46,1.26-2.65,2.72-2.65l7.95.76c1.39.14,2.46,1.32,2.46,2.71.8,12.71-2.43,21.54-9.86,26.85-4.51,3.22-9.53,4.54-14.34,4.54ZM198.8,300.12c-.76,0-1.38.14-1.82.49-.38.29-1.07.82.31,2.68,3.71,5.02,16.55,9.95,26.35,2.94h0c5.37-3.83,7.9-10.39,7.69-20l-2.56-.24c-.58,8.48-2.65,13.68-6.42,16.32-4.89,3.42-10.99,1.39-16.38-.41-2.61-.87-5.29-1.77-7.17-1.77Z" />
      <path class="cls-1" d="M180.69,160.25c-4.19,0-9.32-.66-15.64-1.91-9.82-1.95-15.47-8.85-15.48-18.92-.03-15.58,14.36-37.33,32.28-40.96h0c19.54-3.96,23.71,5.19,24.52,8.08,2.13,7.68-4.08,17-13.56,20.37-1.08.39-1.35.88-1.48,1.31-.59,1.97,1.25,5.89,2.73,7.85,2.6,3.41,4.28,11.13,2.52,15.26-2.59,6.11-7.2,8.93-15.89,8.93ZM190.79,102.88c-2.31,0-4.95.29-7.87.88h0c-15.08,3.05-27.97,22.16-27.95,35.66,0,5.2,1.94,11.79,11.13,13.62,20.4,4.05,23.51.82,25.49-3.82.87-2.06-.18-7.68-1.84-9.87-.22-.29-5.29-7.04-3.61-12.67.48-1.6,1.71-3.75,4.86-4.87,7.5-2.66,11.37-9.42,10.15-13.82-.93-3.34-4.65-5.11-10.37-5.11Z" />
      <path class="cls-1" d="M178.93,150.3c-1.63-.06-3.28-.43-4.64-.74-.66-.15-1.26-.29-1.74-.36-7.73-1.06-11.96-3.3-13.33-7.03-1.27-3.49.29-7.61,4.79-12.62,1.19-1.33,1.98-2.85,2.28-4.41,1.35-6.88,3.38-17.27,20.96-17.58,2.06-.03,7.54-.14,8.5,3.54.35,1.35,1.3,4.93-12.26,12.28-2.81,1.53-3.33,7.28-1.67,10.47,3.79,7.26,4.56,11.69,2.5,14.37-1.31,1.71-3.33,2.14-5.4,2.07ZM188.7,112.52c-.4-.01-.85-.02-1.36,0h0c-13.57.24-14.9,7.02-16.18,13.58-.47,2.44-1.67,4.77-3.46,6.77-2.99,3.32-4.38,6.1-3.83,7.61.3.8,1.8,2.79,9.36,3.83.59.08,1.33.24,2.15.43,1.19.27,4.36.98,5.03.47h0s.92-1.59-2.98-9.05c-2.78-5.34-1.76-14.16,3.69-17.12,5.18-2.81,8.09-5.08,9.25-6.36-.39-.07-.94-.13-1.69-.16Z" />
      <g>
        <path class="cls-2" d="M291.05,191.43c-2.87,0-5.19,2.32-5.19,5.19s2.32,5.19,5.19,5.19,5.19-2.32,5.19-5.19-2.32-5.19-5.19-5.19Z" />
        <path class="cls-2" d="M367.48,190.03h-14.35c-3.1,0-5.65,2.54-5.65,5.65v.72h-5.32v2.07h5.32v.72c0,3.11,2.54,5.65,5.65,5.65h14.35c3.1,0,5.65-2.54,5.65-5.65v-3.51c0-3.1-2.54-5.65-5.65-5.65ZM371.06,199.19c0,1.97-1.61,3.58-3.58,3.58h-14.35c-1.97,0-3.58-1.61-3.58-3.58v-3.51c0-1.97,1.61-3.58,3.58-3.58h14.35c1.97,0,3.58,1.61,3.58,3.58v3.51Z" />
        <path class="cls-2" d="M302.22,196.62c0-6.16-5.01-11.17-11.17-11.17s-11.17,5.01-11.17,11.17,5.01,11.17,11.17,11.17,11.17-5.01,11.17-11.17ZM291.05,205.13c-4.69,0-8.51-3.82-8.51-8.51s3.82-8.51,8.51-8.51,8.51,3.82,8.51,8.51-3.82,8.51-8.51,8.51Z" />
        <path class="cls-2" d="M255.98,69.84c-.11,0-.23,0-.34,0h0s-3.18,0-3.18,0v256.85h1.65c.62.02,1.25.05,1.87.05,71.34,0,129.38-57.62,129.38-128.45s-58.04-128.45-129.38-128.45ZM255.64,83.43h2.79c1.97,0,3.58,1.6,3.58,3.58v14.35c0,1.97-1.61,3.58-3.58,3.58h-2.79v-21.5ZM269.64,118.09l9.31-12.33c15.37,1.78,29.33,7.45,41.03,16.11l-13.42,13.42c-10.6-8.16-23.19-13.85-36.93-16.17v-1.03ZM323.52,122.79h22.76,0s4.1,4.83,4.1,4.83h-21.35v.05l-.04-.03-.97.97-13.75,13.75-8.76,8.76-.38.38-2.92,2.92-2.91,2.91-2.9,2.89-29.18,29.18h-.1v17.54h.09l-.02.02,28.65,28.64,2.91,2.91,2.91,2.91,2.92,2.92.65.65,8.76,8.76c.05-.05.1-.11.16-.17-.05.05-.1.11-.16.17l14.24,14.24.75.75.04-.03v.05h20.89l-4.92,4.82h.01s-20.08.01-20.08.01h-1.4l-.78-.78-14.08-14.08h0l-8.78-8.78-.71-.71-2.93-2.93-2.92-2.92-2.92-2.92-32.19-32.19v-20.19l32.84-32.84,2.91-2.91,2.93-2.93,2.93-2.93.36-.36,8.78-8.78,13.55-13.55,1.01-1.01ZM330.48,265.8l-14.32-14.32h0l-.24-.24c9.91-11.32,16.83-25.35,19.57-40.84h.9l12.96,9.79,5.33-.03c-3.87,17.73-12.32,33.5-24.21,45.64ZM269.82,191.26l28.69-28.69.11-.11c7.95,9.53,12.76,21.81,12.76,35.21s-5,26.17-13.24,35.77l-.16-.16-28.16-28.16v-13.87ZM315.39,194.41h4.11c.06,1.08.08,2.17.08,3.26,0,.97-.03,1.92-.07,2.88h-4.1c.05-.95.07-1.91.07-2.88,0-1.09-.04-2.18-.09-3.26ZM304.46,156.63c6.68,7.84,11.5,17.35,13.73,27.81h-4.21c-2.13-9.34-6.49-17.82-12.45-24.88l2.82-2.82.11-.11ZM314.07,210.53h4.21c-2.24,10.88-7.3,20.71-14.32,28.75l-.16-.16-2.75-2.75c6.29-7.27,10.87-16.09,13.02-25.84ZM335.58,184.46h-.23c-2.8-14.99-9.53-28.58-19.11-39.62l.18-.18h0l13.85-13.85c11.58,11.77,19.99,26.89,24.05,43.88l-4.76-.02-12.96,9.79h-1.01ZM280.09,290.49l-9.48-12.54v-1.59c13.11-2.51,25.16-8.02,35.42-15.79l.18.17h0l14,14.01c-11.42,8.44-25.04,13.97-40.12,15.74ZM257.7,290.43h.73c1.97,0,3.58,1.61,3.58,3.58v14.35c0,1.97-1.61,3.58-3.58,3.58h-2.79v-21.51h2.07ZM270.61,258.8v-4.22c7.37-1.78,14.18-4.98,20.17-9.26l2.95,2.94c-6.81,4.97-14.63,8.62-23.12,10.53ZM256.86,252.09c-.41,0-.81-.02-1.22-.03v-41.89l32.21,32.21c-8.8,6.11-19.48,9.71-30.99,9.71ZM255.64,256.19c.41.01.81.03,1.22.03,1.29,0,2.57-.06,3.84-.14v4.12c-1.27.08-2.55.13-3.84.13-.41,0-.81-.02-1.22-.03v-4.11ZM269.64,136.23c9.14,1.9,17.56,5.8,24.78,11.22l-2.96,2.95c-6.41-4.71-13.8-8.16-21.82-9.95v-4.22ZM288.52,153.35l-32.88,32.88v-43.04c.41-.01.81-.03,1.22-.03,11.8,0,22.73,3.78,31.65,10.18ZM259.72,139.1c-.94-.05-1.9-.07-2.86-.07-.41,0-.81.02-1.22.03v-4.11c.41,0,.81-.03,1.22-.03.96,0,1.91.03,2.86.07v4.11ZM255.98,324.02c-.11,0-.23,0-.34,0v-10.01h2.79c3.1,0,5.64-2.54,5.64-5.65v-14.35c0-3.1-2.54-5.64-5.64-5.64h-.73v-5.32h-2.07v-18.6c.41,0,.81.03,1.22.03,1.29,0,2.57-.05,3.84-.12v18.48l6.91,6.91v28.34l12.71-6.17.08-19.44c15.51-1.83,29.51-7.56,41.24-16.3l.11.11v.02h24.86l7.28-7.53,2.7-2.7h-23.61c11.67-12.35,19.95-28.18,23.73-45.93l13.85-.05,6.17-12.71h-28.54l-6.91-6.91h-17.65c.04-.93.07-1.87.07-2.81,0-1.06-.03-2.24-.08-3.3h13.1s4.76,0,4.76,0l6.92-6.91h28.34l-6.17-12.71-14.21-.05c-4-17.11-12.3-32.38-23.78-44.38h24.02l-2.7-2.7-6-7.53h-26.14v.02l-.34.34c-11.97-8.92-26.25-14.78-41.99-16.65l-.07-19.35-12.71-6.17v28.02l-6.92,6.91v17.65c-.95-.04-1.9-.07-2.86-.07-.41,0-.81.03-1.22.03v-18.49h2.07v-5.32h.73c3.1,0,5.64-2.54,5.64-5.65v-14.35c0-3.1-2.54-5.64-5.64-5.64h-2.79v-8.8c.11,0,.23,0,.34,0,69.83,0,126.64,56.4,126.64,125.73s-56.81,125.73-126.64,125.73Z" />
      </g>
    </g>
  </g>
  </svg>